<svg version="1.0" xmlns="http://www.w3.org/2000/svg"
 width="220.000000pt" height="70.000000pt" viewBox="0 0 220.000000 70.000000"
 preserveAspectRatio="xMidYMid meet">

<g transform="translate(0.000000,70.000000) scale(0.100000,-0.100000)"
fill="#000000" stroke="none">
<path d="M1040 590 l0 -70 43 2 c36 1 38 2 10 5 l-33 4 0 65 c0 36 -4 64 -10
64 -6 0 -10 -30 -10 -70z"/>
<path d="M1261 595 l-1 -71 31 -2 c40 -3 59 13 59 48 0 34 -22 54 -54 48 -21
-4 -26 -1 -29 21 -2 14 -5 -6 -6 -44z m75 -10 c8 -31 -12 -57 -40 -53 -13 2
-22 12 -24 26 -5 36 5 52 32 52 19 0 27 -7 32 -25z"/>
<path d="M1785 650 c-3 -6 1 -7 9 -4 18 7 21 14 7 14 -6 0 -13 -4 -16 -10z"/>
<path d="M1679 635 c-8 -38 5 -110 21 -111 9 0 10 1 3 3 -8 3 -13 21 -13 44 0
24 5 39 13 39 8 0 9 3 1 8 -6 4 -13 14 -16 22 -3 11 -6 9 -9 -5z"/>
<path d="M1156 612 c-3 -4 8 -6 25 -4 22 3 29 0 29 -12 0 -9 -6 -16 -12 -16
-10 0 -10 -2 -2 -8 7 -4 14 -18 17 -32 3 -14 4 -2 3 25 -1 46 -3 50 -28 53
-14 2 -29 -1 -32 -6z"/>
<path d="M1379 594 c-12 -34 11 -74 44 -74 30 0 47 18 47 50 0 34 -17 50 -52
50 -22 0 -31 -6 -39 -26z m77 -9 c8 -31 -12 -57 -40 -53 -13 2 -22 12 -24 26
-5 36 5 52 32 52 19 0 27 -7 32 -25z"/>
<path d="M1502 565 c1 -46 2 -47 5 -10 2 22 11 45 20 52 13 10 13 12 -6 10
-19 -1 -21 -7 -19 -52z"/>
<path d="M1576 612 c-3 -4 8 -6 25 -4 22 3 29 0 29 -12 0 -9 -6 -16 -12 -16
-10 0 -10 -2 -2 -8 7 -4 14 -18 17 -32 3 -14 4 -2 3 25 -1 46 -3 50 -28 53
-14 2 -29 -1 -32 -6z"/>
<path d="M1738 595 c-17 -39 3 -75 42 -75 39 0 59 36 42 75 -9 19 -19 25 -42
25 -23 0 -33 -6 -42 -25z m76 -7 c14 -23 -3 -52 -32 -56 -29 -4 -51 40 -32 63
16 20 49 16 64 -7z"/>
<path d="M1862 565 c1 -46 2 -47 5 -10 2 22 11 45 20 52 13 10 13 12 -6 10
-19 -1 -21 -7 -19 -52z"/>
<path d="M1933 570 c0 -30 2 -43 4 -27 2 15 2 39 0 55 -2 15 -4 2 -4 -28z"/>
<path d="M1982 608 c-7 -7 -12 -24 -12 -38 0 -31 17 -50 45 -50 28 0 45 19 45
50 0 31 -17 50 -45 50 -12 0 -26 -5 -33 -12z m63 -38 c0 -32 -2 -35 -30 -35
-24 0 -31 5 -33 23 -6 38 5 54 35 50 25 -3 28 -7 28 -38z"/>
<path d="M1144 565 c-8 -21 14 -45 40 -44 20 1 20 2 1 6 -31 8 -40 20 -25 38
9 11 9 15 1 15 -6 0 -14 -7 -17 -15z"/>
<path d="M1566 564 c-8 -22 11 -44 38 -43 20 1 20 2 1 6 -31 8 -40 20 -25 38
7 8 8 15 2 15 -5 0 -13 -7 -16 -16z"/>
<path d="M135 551 c-81 -36 -135 -131 -120 -210 19 -102 87 -163 190 -169 44
-3 72 1 96 12 19 9 104 75 189 147 85 72 167 137 182 145 47 24 86 16 136 -29
l22 -21 30 29 30 29 -23 24 c-51 56 -151 77 -223 47 -19 -8 -65 -39 -102 -70
-36 -30 -70 -55 -74 -55 -4 0 -36 25 -72 55 -36 31 -81 62 -100 70 -48 20
-112 18 -161 -4z m136 -91 c28 -16 51 -67 44 -99 -5 -25 -77 -122 -94 -129 -5
-1 -29 23 -55 54 -35 43 -46 64 -46 91 0 69 87 117 151 83z"/>
<path d="M1071 466 c-90 -50 -50 -186 55 -186 55 0 104 47 104 100 0 76 -90
124 -159 86z m89 -46 c11 -11 20 -29 20 -40 0 -23 -33 -60 -55 -60 -22 0 -55
37 -55 60 0 23 33 60 55 60 8 0 24 -9 35 -20z"/>
<path d="M1790 380 c0 -99 0 -101 23 -98 21 3 22 7 22 98 0 91 -1 95 -22 98
-23 3 -23 1 -23 -98z"/>
<path d="M1970 445 c0 -32 -2 -35 -19 -25 -29 15 -39 13 -66 -15 -30 -29 -33
-77 -6 -104 15 -15 33 -19 75 -19 l56 1 0 98 c0 92 -1 99 -20 99 -16 0 -20 -7
-20 -35z m-10 -70 c19 -23 8 -50 -20 -50 -19 0 -26 6 -28 24 -5 35 26 53 48
26z"/>
<path d="M1272 414 c-40 -28 -26 -64 32 -78 19 -5 25 -11 19 -17 -6 -6 -19 -6
-37 1 -22 8 -28 7 -33 -6 -11 -30 55 -46 98 -24 38 21 18 80 -27 80 -13 0 -26
5 -30 11 -5 8 3 10 25 7 43 -6 64 18 26 32 -36 14 -47 13 -73 -6z"/>
<path d="M1652 420 c-36 -15 -21 -36 21 -32 27 3 37 0 37 -11 0 -10 -8 -13
-24 -10 -31 6 -66 -13 -66 -37 0 -34 26 -48 85 -48 l55 1 0 51 c0 29 -6 60
-12 69 -16 21 -66 30 -96 17z m58 -95 c0 -8 -9 -15 -20 -15 -11 0 -20 7 -20
15 0 8 9 15 20 15 11 0 20 -7 20 -15z"/>
<path d="M2065 408 c-54 -47 -25 -128 47 -128 36 0 78 40 78 73 0 34 -29 66
-66 73 -24 4 -37 0 -59 -18z m63 -27 c21 -13 11 -55 -15 -59 -26 -4 -41 31
-23 53 14 17 20 18 38 6z"/>
<path d="M1384 405 c3 -9 13 -40 22 -70 13 -47 19 -55 39 -55 19 0 26 9 38 43
l14 42 13 -43 c12 -37 17 -43 38 -40 20 2 28 13 43 63 24 76 24 77 -3 73 -15
-2 -25 -13 -31 -38 l-10 -35 -15 38 c-19 49 -57 53 -67 7 -9 -43 -22 -45 -29
-5 -6 29 -11 35 -33 35 -18 0 -24 -4 -19 -15z"/>
<path d="M540 309 l-35 -29 35 -30 c19 -17 55 -43 80 -58 76 -46 178 -33 248
31 29 27 27 37 -9 65 l-29 24 -31 -26 c-59 -50 -100 -47 -175 13 l-50 39 -34
-29z"/>
<path d="M1071 236 c-13 -7 -30 -24 -37 -37 -53 -95 66 -194 151 -127 25 20
26 22 10 34 -14 11 -22 10 -41 -2 -43 -29 -93 10 -80 62 9 33 44 46 74 28 23
-15 62 -11 62 6 0 5 -12 18 -26 29 -30 24 -78 27 -113 7z"/>
<path d="M1230 120 c0 -68 1 -70 25 -70 23 0 25 3 25 50 0 43 3 50 20 50 13 0
20 7 20 19 0 15 -8 19 -45 19 l-45 1 0 -69z"/>
<path d="M1340 139 c0 -78 9 -88 80 -87 l60 1 0 68 c0 62 -2 69 -19 69 -17 0
-20 -8 -23 -47 -3 -41 -6 -48 -25 -51 -21 -3 -23 0 -23 47 0 48 -2 51 -25 51
-23 0 -25 -3 -25 -51z"/>
<path d="M1512 173 c2 -9 14 -20 27 -23 l24 -5 -27 -32 c-43 -51 -36 -63 34
-63 53 0 60 2 60 20 0 15 -7 20 -25 20 -14 0 -25 4 -25 8 0 5 11 19 25 32 14
13 25 32 25 42 0 15 -9 18 -61 18 -52 0 -60 -2 -57 -17z"/>
</g>
</svg>
